# xmcd
#
# Track frame offsets:
#	150
#	10719
#	20785
#	33280
#	43822
#	54103
#	64167
#	74292
#	84708
#	92979
#	102251
#	109078
#	114745
#	126225
#	131877
#	140567
#	147749
#	159933
#	170097
#	182526
#	195268
#	206023
#	217617
#	228986
#	241305
#	248734
#	257679
#	267465
#	272737
#	286214
#	340984
#
# Disc length: 4708 seconds
#
# Revision: 0
# Processed by: cddbd v1.5.2PL0 Copyright (c) Steve Scherf et al.
# Submitted via: EasyCDDAExtractor 12.0.1.1
#
DISCID=ce12621f
DTITLE=Buck Owens - Act Naturally: The Buck Owens Recordings 1953-1964 [cd1]
DYEAR=2008
DGENRE=Country
TTITLE0=Down On The Corner Of Love
TTITLE1=It Don't Show On Me
TTITLE2=The House Down The Block
TTITLE3=Right After The Dance
TTITLE4=Hot Dog
TTITLE5=Rhythm And Booze
TTITLE6=There Goes My Love
TTITLE7=Sweethearts In Heaven
TTITLE8=Honeysuckle
TTITLE9=Country Girl (Leavin' Dirty Tracks)
TTITLE10=You're Fer Me
TTITLE11=Blue Love
TTITLE12=Please Don't Take Her From Me
TTITLE13=Three Dimension Love
TTITLE14=Why Don't My Mommy Stay With My Daddy And Me?
TTITLE15=I'm Gonna Blow
TTITLE16=I Found You Out
TTITLE17=You're Just What The Doctor Ordered
TTITLE18=Rightfully Mine
TTITLE19=Goose Rock
TTITLE20=Louisiana Swing
TTITLE21=I'm Gonna Set You Free
TTITLE22=Mean, Mean, Mean
TTITLE23=Last Dance Tonight
TTITLE24=Down On The Corner Of Love
TTITLE25=It Don't Show On Me
TTITLE26=The House Down The Block
TTITLE27=Right After The Dance
TTITLE28=Blue Love
TTITLE29=The King Of Fools
TTITLE30=All The Way With Jesus
EXTD=
EXTT0=
EXTT1=
EXTT2=
EXTT3=
EXTT4=
EXTT5=
EXTT6=
EXTT7=
EXTT8=
EXTT9=
EXTT10=
EXTT11=
EXTT12=
EXTT13=
EXTT14=
EXTT15=
EXTT16=
EXTT17=
EXTT18=
EXTT19=
EXTT20=
EXTT21=
EXTT22=
EXTT23=
EXTT24=
EXTT25=
EXTT26=
EXTT27=
EXTT28=
EXTT29=
EXTT30=
PLAYORDER=
